<svg width="12" height="12" viewBox="0 0 12 12" fill="none" xmlns="http://www.w3.org/2000/svg">
<path d="M10.5454 5.41412L10.9997 5.2053L10.5454 5.41412ZM10.5454 6.58588L10.0911 6.37706L10.5454 6.58588ZM1.90881 5.62294C2.62082 4.07391 4.18551 3 5.99997 3V2C3.78059 2 1.86929 3.31452 1.0002 5.2053L1.90881 5.62294ZM5.99997 3C7.81443 3 9.37911 4.07391 10.0911 5.62294L10.9997 5.2053C10.1306 3.31452 8.21934 2 5.99997 2V3ZM10.0911 6.37706C9.37911 7.9261 7.81443 9 5.99997 9V10C8.21934 10 10.1306 8.68548 10.9997 6.7947L10.0911 6.37706ZM5.99997 9C4.18551 9 2.62082 7.92609 1.90881 6.37706L1.0002 6.7947C1.86929 8.68548 3.78059 10 5.99997 10V9ZM10.0911 5.62294C10.201 5.86195 10.201 6.13805 10.0911 6.37706L10.9997 6.7947C11.2314 6.2906 11.2314 5.70941 10.9997 5.2053L10.0911 5.62294ZM1.0002 5.2053C0.768488 5.7094 0.768488 6.2906 1.0002 6.7947L1.90881 6.37706C1.79895 6.13805 1.79895 5.86195 1.90881 5.62294L1.0002 5.2053Z" fill="#fff"/>
<circle cx="6" cy="6" r="1.5" stroke="#fff" stroke-linecap="round" stroke-linejoin="round"/>
</svg>